<svg width="20" height="20" viewBox="0 0 20 20" fill="none" xmlns="http://www.w3.org/2000/svg">
<mask id="path-1-inside-1_7_1222" fill="white">
<path fill-rule="evenodd" clip-rule="evenodd" d="M7 4.5C7 5.88071 5.88071 7 4.5 7C3.11929 7 2 5.88071 2 4.5C2 3.11929 3.11929 2 4.5 2C5.88071 2 7 3.11929 7 4.5ZM9 4.5C9 6.98528 6.98528 9 4.5 9C2.01472 9 0 6.98528 0 4.5C0 2.01472 2.01472 0 4.5 0C6.98528 0 9 2.01472 9 4.5ZM7 15.5C7 16.8807 5.88071 18 4.5 18C3.11929 18 2 16.8807 2 15.5C2 14.1193 3.11929 13 4.5 13C5.88071 13 7 14.1193 7 15.5ZM9 15.5C9 17.9853 6.98528 20 4.5 20C2.01472 20 0 17.9853 0 15.5C0 13.0147 2.01472 11 4.5 11C6.98528 11 9 13.0147 9 15.5ZM15.5 7C16.8807 7 18 5.88071 18 4.5C18 3.11929 16.8807 2 15.5 2C14.1193 2 13 3.11929 13 4.5C13 5.88071 14.1193 7 15.5 7ZM15.5 9C17.9853 9 20 6.98528 20 4.5C20 2.01472 17.9853 0 15.5 0C13.0147 0 11 2.01472 11 4.5C11 6.98528 13.0147 9 15.5 9ZM18 15.5C18 16.8807 16.8807 18 15.5 18C14.1193 18 13 16.8807 13 15.5C13 14.1193 14.1193 13 15.5 13C16.8807 13 18 14.1193 18 15.5ZM20 15.5C20 17.9853 17.9853 20 15.5 20C13.0147 20 11 17.9853 11 15.5C11 13.0147 13.0147 11 15.5 11C17.9853 11 20 13.0147 20 15.5Z"/>
</mask>
<path d="M4.5 9C6.98528 9 9 6.98528 9 4.5H5C5 4.77614 4.77614 5 4.5 5V9ZM0 4.5C0 6.98528 2.01472 9 4.5 9V5C4.22386 5 4 4.77614 4 4.5H0ZM4.5 0C2.01472 0 0 2.01472 0 4.5H4C4 4.22386 4.22386 4 4.5 4V0ZM9 4.5C9 2.01472 6.98528 0 4.5 0V4C4.77614 4 5 4.22386 5 4.5H9ZM4.5 11C8.08985 11 11 8.08985 11 4.5H7C7 5.88071 5.88071 7 4.5 7V11ZM-2 4.5C-2 8.08985 0.910149 11 4.5 11V7C3.11929 7 2 5.88071 2 4.5H-2ZM4.5 -2C0.910149 -2 -2 0.910149 -2 4.5H2C2 3.11929 3.11929 2 4.5 2V-2ZM11 4.5C11 0.910149 8.08985 -2 4.5 -2V2C5.88071 2 7 3.11929 7 4.5H11ZM4.5 20C6.98528 20 9 17.9853 9 15.5H5C5 15.7761 4.77614 16 4.5 16V20ZM0 15.5C0 17.9853 2.01472 20 4.5 20V16C4.22386 16 4 15.7761 4 15.5H0ZM4.5 11C2.01472 11 0 13.0147 0 15.5H4C4 15.2239 4.22386 15 4.5 15V11ZM9 15.5C9 13.0147 6.98528 11 4.5 11V15C4.77614 15 5 15.2239 5 15.5H9ZM4.5 22C8.08985 22 11 19.0898 11 15.5H7C7 16.8807 5.88071 18 4.5 18V22ZM-2 15.5C-2 19.0898 0.910149 22 4.5 22V18C3.11929 18 2 16.8807 2 15.5H-2ZM4.5 9C0.910149 9 -2 11.9101 -2 15.5H2C2 14.1193 3.11929 13 4.5 13V9ZM11 15.5C11 11.9101 8.08985 9 4.5 9V13C5.88071 13 7 14.1193 7 15.5H11ZM16 4.5C16 4.77614 15.7761 5 15.5 5V9C17.9853 9 20 6.98528 20 4.5H16ZM15.5 4C15.7761 4 16 4.22386 16 4.5H20C20 2.01472 17.9853 0 15.5 0V4ZM15 4.5C15 4.22386 15.2239 4 15.5 4V0C13.0147 0 11 2.01472 11 4.5H15ZM15.5 5C15.2239 5 15 4.77614 15 4.5H11C11 6.98528 13.0147 9 15.5 9V5ZM18 4.5C18 5.88071 16.8807 7 15.5 7V11C19.0898 11 22 8.08985 22 4.5H18ZM15.5 2C16.8807 2 18 3.11929 18 4.5H22C22 0.910149 19.0898 -2 15.5 -2V2ZM13 4.5C13 3.11929 14.1193 2 15.5 2V-2C11.9101 -2 9 0.910149 9 4.5H13ZM15.5 7C14.1193 7 13 5.88071 13 4.5H9C9 8.08985 11.9101 11 15.5 11V7ZM15.5 20C17.9853 20 20 17.9853 20 15.5H16C16 15.7761 15.7761 16 15.5 16V20ZM11 15.5C11 17.9853 13.0147 20 15.5 20V16C15.2239 16 15 15.7761 15 15.5H11ZM15.5 11C13.0147 11 11 13.0147 11 15.5H15C15 15.2239 15.2239 15 15.5 15V11ZM20 15.5C20 13.0147 17.9853 11 15.5 11V15C15.7761 15 16 15.2239 16 15.5H20ZM15.5 22C19.0899 22 22 19.0899 22 15.5H18C18 16.8807 16.8807 18 15.5 18V22ZM9 15.5C9 19.0899 11.9101 22 15.5 22V18C14.1193 18 13 16.8807 13 15.5H9ZM15.5 9C11.9101 9 9 11.9101 9 15.5H13C13 14.1193 14.1193 13 15.5 13V9ZM22 15.5C22 11.9101 19.0899 9 15.5 9V13C16.8807 13 18 14.1193 18 15.5H22Z" fill="black" mask="url(#path-1-inside-1_7_1222)"/>
</svg>
